<svg xmlns="http://www.w3.org/2000/svg" viewBox="0 0 64 64" id="basket">
  <defs>
    <linearGradient id="a" x1="4" x2="60" y1="32" y2="32" gradientUnits="userSpaceOnUse">
      <stop offset="0" stop-color="#ffde00"></stop>
      <stop offset="1" stop-color="#fd5900"></stop>
    </linearGradient>
  </defs>
  <path fill="url(#a)" d="M56.5 16.89h-6.94L44.9 6.06a2.5 2.5 0 1 0-4.59 1.98l3.81 8.85H19.88l3.81-8.85a2.5 2.5 0 1 0-4.59-1.98l-4.66 10.83H7.5a3.504 3.504 0 0 0-3.5 3.5v8.32a3.504 3.504 0 0 0 3.5 3.5h1.39l3.23 22.52a5.518 5.518 0 0 0 5.44 4.72h28.88a5.518 5.518 0 0 0 5.44-4.72l3.23-22.52h1.39a3.504 3.504 0 0 0 3.5-3.5v-8.32a3.504 3.504 0 0 0-3.5-3.5Zm-9.57 37.13a.488.488 0 0 1-.49.43H17.56a.488.488 0 0 1-.49-.43l-3.13-21.81h36.12Zm-27.222-8.133v-5.11a2.5 2.5 0 0 1 5 0v5.11a2.5 2.5 0 0 1-5 0Zm9.792 0v-5.11a2.5 2.5 0 0 1 5 0v5.11a2.5 2.5 0 0 1-5 0Zm9.792 0v-5.11a2.5 2.5 0 0 1 5 0v5.11a2.5 2.5 0 0 1-5 0Z"></path>
</svg>
